<svg xmlns="http://www.w3.org/2000/svg" xmlns:svg="http://www.w3.org/2000/svg" id="svg2" width="413.015" height="665.479" version="1.1"><defs id="defs4"><marker id="Arrow2Mstart" orient="auto" refX="0" refY="0" style="overflow:visible"><path id="path3910" d="M 8.7185878,4.0337352 -2.2072895,0.01601326 8.7185884,-4.0017078 c -1.7454984,2.3720609 -1.7354408,5.6174519 -6e-7,8.035443 z" transform="scale(0.6,0.6)" style="font-size:12px;fill-rule:evenodd;stroke-width:.625;stroke-linejoin:round"/></marker><marker id="Arrow2Mend" orient="auto" refX="0" refY="0" style="overflow:visible"><path id="path3913" d="M 8.7185878,4.0337352 -2.2072895,0.01601326 8.7185884,-4.0017078 c -1.7454984,2.3720609 -1.7354408,5.6174519 -6e-7,8.035443 z" transform="scale(-0.6,-0.6)" style="font-size:12px;fill-rule:evenodd;stroke-width:.625;stroke-linejoin:round"/></marker><marker id="Arrow1Mend" orient="auto" refX="0" refY="0" style="overflow:visible"><path id="path3895" d="M 0,0 5,-5 -12.5,0 5,5 0,0 z" transform="matrix(-0.4,0,0,-0.4,-4,0)" style="fill-rule:evenodd;stroke:#000;stroke-width:1pt;marker-start:none"/></marker></defs><metadata id="metadata7"/><g id="layer1" transform="translate(-127.00909,-28.432181)"><g id="g6122" transform="translate(60.48867,-3.2631537)"><path style="fill:none;stroke:purple;stroke-width:1.5;stroke-linecap:butt;stroke-linejoin:miter;stroke-miterlimit:4;stroke-opacity:1;stroke-dasharray:none" id="path5042" d="m 344.42857,186.43361 85.71429,0 -41.64377,-72.12912 z"/><text style="font-size:14px;font-style:normal;font-variant:normal;font-weight:700;font-stretch:normal;line-height:125%;letter-spacing:0;word-spacing:0;fill:#00f;fill-opacity:1;stroke:none;font-family:Courier 10 Pitch;-inkscape-font-specification:Sans Bold" id="text5056" x="383.5" y="197.362" xml:space="preserve"><tspan id="tspan5058" x="383.5" y="197.362">0</tspan></text><text style="font-size:14px;font-style:normal;font-variant:normal;font-weight:700;font-stretch:normal;line-height:125%;letter-spacing:0;word-spacing:0;fill:#00f;fill-opacity:1;stroke:none;font-family:Courier 10 Pitch;-inkscape-font-specification:Sans Bold" id="text5060" x="412" y="149.862" xml:space="preserve"><tspan id="tspan5062" x="412" y="149.862">1</tspan></text><text style="font-size:14px;font-style:normal;font-variant:normal;font-weight:700;font-stretch:normal;line-height:125%;letter-spacing:0;word-spacing:0;fill:#00f;fill-opacity:1;stroke:none;font-family:Courier 10 Pitch;-inkscape-font-specification:Sans Bold" id="text5064" x="356" y="149.862" xml:space="preserve"><tspan id="tspan5066" x="356" y="149.862">2</tspan></text></g><g id="g5370" transform="translate(-7.797522,0)"><path id="path4899" d="m 199.42857,187.93361 85.71429,0 -41.64377,-72.12912 z" style="fill:none;stroke:purple;stroke-width:1.5;stroke-linecap:butt;stroke-linejoin:miter;stroke-miterlimit:4;stroke-opacity:1;stroke-dasharray:none"/><text id="text5001" x="187.5" y="187.862" xml:space="preserve" style="font-size:14px;font-style:normal;font-variant:normal;font-weight:700;font-stretch:normal;line-height:125%;letter-spacing:0;word-spacing:0;fill:#000;fill-opacity:1;stroke:none;font-family:Courier 10 Pitch;-inkscape-font-specification:Sans Bold"><tspan id="tspan5003" x="187.5" y="187.862">0</tspan></text><text id="text5005" x="290.5" y="187.862" xml:space="preserve" style="font-size:14px;font-style:normal;font-variant:normal;font-weight:700;font-stretch:normal;line-height:125%;letter-spacing:0;word-spacing:0;fill:#000;fill-opacity:1;stroke:none;font-family:Courier 10 Pitch;-inkscape-font-specification:Sans Bold"><tspan id="tspan5007" x="290.5" y="187.862">1</tspan></text><text id="text5009" x="239.5" y="110.862" xml:space="preserve" style="font-size:14px;font-style:normal;font-variant:normal;font-weight:700;font-stretch:normal;line-height:125%;letter-spacing:0;word-spacing:0;fill:#000;fill-opacity:1;stroke:none;font-family:Courier 10 Pitch;-inkscape-font-specification:Sans Bold"><tspan id="tspan5011" x="239.5" y="110.862">2</tspan></text><text id="text5013" x="238" y="202.362" xml:space="preserve" style="font-size:14px;font-style:normal;font-variant:normal;font-weight:700;font-stretch:normal;line-height:125%;letter-spacing:0;word-spacing:0;fill:#000;fill-opacity:1;stroke:none;font-family:Courier 10 Pitch;-inkscape-font-specification:Sans Bold"><tspan id="tspan5015" x="238" y="202.362">3</tspan></text><text id="text5017" x="268.5" y="150.362" xml:space="preserve" style="font-size:14px;font-style:normal;font-variant:normal;font-weight:700;font-stretch:normal;line-height:125%;letter-spacing:0;word-spacing:0;fill:#000;fill-opacity:1;stroke:none;font-family:Courier 10 Pitch;-inkscape-font-specification:Sans Bold"><tspan id="tspan5019" x="268.5" y="150.362">4</tspan></text><text id="text5021" x="210" y="151.862" xml:space="preserve" style="font-size:14px;font-style:normal;font-variant:normal;font-weight:700;font-stretch:normal;line-height:125%;letter-spacing:0;word-spacing:0;fill:#000;fill-opacity:1;stroke:none;font-family:Courier 10 Pitch;-inkscape-font-specification:Sans Bold"><tspan id="tspan5023" x="210" y="151.862">5</tspan></text><path style="fill:red;fill-opacity:1;stroke:none" id="path5151" d="m 314.5,135.11218 c 0,2.07107 -1.67893,3.75 -3.75,3.75 -2.07107,0 -3.75,-1.67893 -3.75,-3.75 0,-2.07107 1.67893,-3.75 3.75,-3.75 2.07107,0 3.75,1.67893 3.75,3.75 z" transform="translate(-111.5,53)"/><path id="path5153" d="m 314.5,135.11218 c 0,2.07107 -1.67893,3.75 -3.75,3.75 -2.07107,0 -3.75,-1.67893 -3.75,-3.75 0,-2.07107 1.67893,-3.75 3.75,-3.75 2.07107,0 3.75,1.67893 3.75,3.75 z" transform="translate(-24.5,52.5)" style="fill:red;fill-opacity:1;stroke:none"/><path style="fill:red;fill-opacity:1;stroke:none" id="path5155" d="m 314.5,135.11218 c 0,2.07107 -1.67893,3.75 -3.75,3.75 -2.07107,0 -3.75,-1.67893 -3.75,-3.75 0,-2.07107 1.67893,-3.75 3.75,-3.75 2.07107,0 3.75,1.67893 3.75,3.75 z" transform="translate(-67.5,-19)"/><path id="path5157" d="m 314.5,135.11218 c 0,2.07107 -1.67893,3.75 -3.75,3.75 -2.07107,0 -3.75,-1.67893 -3.75,-3.75 0,-2.07107 1.67893,-3.75 3.75,-3.75 2.07107,0 3.75,1.67893 3.75,3.75 z" transform="translate(-68.5,52.5)" style="fill:#a0a4a1;fill-opacity:1;stroke:none"/><path style="fill:#a0a4a1;fill-opacity:1;stroke:none" id="path5159" d="m 314.5,135.11218 c 0,2.07107 -1.67893,3.75 -3.75,3.75 -2.07107,0 -3.75,-1.67893 -3.75,-3.75 0,-2.07107 1.67893,-3.75 3.75,-3.75 2.07107,0 3.75,1.67893 3.75,3.75 z" transform="translate(-46,16)"/><path id="path5161" d="m 314.5,135.11218 c 0,2.07107 -1.67893,3.75 -3.75,3.75 -2.07107,0 -3.75,-1.67893 -3.75,-3.75 0,-2.07107 1.67893,-3.75 3.75,-3.75 2.07107,0 3.75,1.67893 3.75,3.75 z" transform="translate(-89.5,17.5)" style="fill:#a0a4a1;fill-opacity:1;stroke:none"/></g><g id="g5609" transform="translate(-9.554522,0)"><rect id="rect4895" width="85.714" height="78.571" x="201.429" y="247.362" style="fill:none;stroke:purple;stroke-width:1.5;stroke-miterlimit:4;stroke-opacity:1;stroke-dasharray:none"/><text id="text4925" x="191.357" y="339.138" xml:space="preserve" style="font-size:14px;font-style:normal;font-variant:normal;font-weight:700;font-stretch:normal;line-height:125%;letter-spacing:0;word-spacing:0;fill:#000;fill-opacity:1;stroke:none;font-family:Courier 10 Pitch;-inkscape-font-specification:Sans Bold"><tspan id="tspan4927" x="191.357" y="339.138">0</tspan></text><text id="text4969" x="289" y="339.362" xml:space="preserve" style="font-size:14px;font-style:normal;font-variant:normal;font-weight:700;font-stretch:normal;line-height:125%;letter-spacing:0;word-spacing:0;fill:#000;fill-opacity:1;stroke:none;font-family:Courier 10 Pitch;-inkscape-font-specification:Sans Bold"><tspan id="tspan4971" x="289" y="339.362">1</tspan></text><text id="text4973" x="290.5" y="243.862" xml:space="preserve" style="font-size:14px;font-style:normal;font-variant:normal;font-weight:700;font-stretch:normal;line-height:125%;letter-spacing:0;word-spacing:0;fill:#000;fill-opacity:1;stroke:none;font-family:Courier 10 Pitch;-inkscape-font-specification:Sans Bold"><tspan id="tspan4975" x="290.5" y="243.862">2</tspan></text><text id="text4977" x="191.5" y="243.862" xml:space="preserve" style="font-size:14px;font-style:normal;font-variant:normal;font-weight:700;font-stretch:normal;line-height:125%;letter-spacing:0;word-spacing:0;fill:#000;fill-opacity:1;stroke:none;font-family:Courier 10 Pitch;-inkscape-font-specification:Sans Bold"><tspan id="tspan4979" x="191.5" y="243.862">3</tspan></text><text id="text4981" x="239" y="341.362" xml:space="preserve" style="font-size:14px;font-style:normal;font-variant:normal;font-weight:700;font-stretch:normal;line-height:125%;letter-spacing:0;word-spacing:0;fill:#000;fill-opacity:1;stroke:none;font-family:Courier 10 Pitch;-inkscape-font-specification:Sans Bold"><tspan id="tspan4983" x="239" y="341.362">4</tspan></text><text id="text4985" x="292" y="290.444" xml:space="preserve" style="font-size:14px;font-style:normal;font-variant:normal;font-weight:700;font-stretch:normal;line-height:125%;letter-spacing:0;word-spacing:0;fill:#000;fill-opacity:1;stroke:none;font-family:Courier 10 Pitch;-inkscape-font-specification:Sans Bold"><tspan id="tspan4987" x="292" y="290.444">5</tspan></text><text id="text4989" x="242" y="239.862" xml:space="preserve" style="font-size:14px;font-style:normal;font-variant:normal;font-weight:700;font-stretch:normal;line-height:125%;letter-spacing:0;word-spacing:0;fill:#000;fill-opacity:1;stroke:none;font-family:Courier 10 Pitch;-inkscape-font-specification:Sans Bold"><tspan id="tspan4991" x="242" y="239.862">6</tspan></text><text id="text4993" x="189.5" y="290.5" xml:space="preserve" style="font-size:14px;font-style:normal;font-variant:normal;font-weight:700;font-stretch:normal;line-height:125%;letter-spacing:0;word-spacing:0;fill:#000;fill-opacity:1;stroke:none;font-family:Courier 10 Pitch;-inkscape-font-specification:Sans Bold"><tspan id="tspan4995" x="189.5" y="290.5">7</tspan></text><text id="text4997" x="233" y="290.556" xml:space="preserve" style="font-size:14px;font-style:normal;font-variant:normal;font-weight:700;font-stretch:normal;line-height:125%;letter-spacing:0;word-spacing:0;fill:#000;fill-opacity:1;stroke:none;font-family:Courier 10 Pitch;-inkscape-font-specification:Sans Bold"><tspan id="tspan4999" x="233" y="290.556">8</tspan></text><path style="fill:red;fill-opacity:1;stroke:none" id="path5167" d="m 314.5,135.11218 c 0,2.07107 -1.67893,3.75 -3.75,3.75 -2.07107,0 -3.75,-1.67893 -3.75,-3.75 0,-2.07107 1.67893,-3.75 3.75,-3.75 2.07107,0 3.75,1.67893 3.75,3.75 z" transform="translate(-109,190.75)"/><path id="path5169" d="m 314.5,135.11218 c 0,2.07107 -1.67893,3.75 -3.75,3.75 -2.07107,0 -3.75,-1.67893 -3.75,-3.75 0,-2.07107 1.67893,-3.75 3.75,-3.75 2.07107,0 3.75,1.67893 3.75,3.75 z" transform="translate(-25,190.75)" style="fill:red;fill-opacity:1;stroke:none"/><path style="fill:red;fill-opacity:1;stroke:none" id="path5171" d="m 314.5,135.11218 c 0,2.07107 -1.67893,3.75 -3.75,3.75 -2.07107,0 -3.75,-1.67893 -3.75,-3.75 0,-2.07107 1.67893,-3.75 3.75,-3.75 2.07107,0 3.75,1.67893 3.75,3.75 z" transform="translate(-24,112.25)"/><path id="path5173" d="m 314.5,135.11218 c 0,2.07107 -1.67893,3.75 -3.75,3.75 -2.07107,0 -3.75,-1.67893 -3.75,-3.75 0,-2.07107 1.67893,-3.75 3.75,-3.75 2.07107,0 3.75,1.67893 3.75,3.75 z" transform="translate(-64.5,112.25)" style="fill:#a0a4a1;fill-opacity:1;stroke:none"/><path style="fill:red;fill-opacity:1;stroke:none" id="path5175" d="m 314.5,135.11218 c 0,2.07107 -1.67893,3.75 -3.75,3.75 -2.07107,0 -3.75,-1.67893 -3.75,-3.75 0,-2.07107 1.67893,-3.75 3.75,-3.75 2.07107,0 3.75,1.67893 3.75,3.75 z" transform="translate(-108,112.25)"/><path id="path5177" d="m 314.5,135.11218 c 0,2.07107 -1.67893,3.75 -3.75,3.75 -2.07107,0 -3.75,-1.67893 -3.75,-3.75 0,-2.07107 1.67893,-3.75 3.75,-3.75 2.07107,0 3.75,1.67893 3.75,3.75 z" transform="translate(-109.5,151.132)" style="fill:#a0a4a1;fill-opacity:1;stroke:none"/><path style="fill:#a0a4a1;fill-opacity:1;stroke:none" id="path5179" d="m 314.5,135.11218 c 0,2.07107 -1.67893,3.75 -3.75,3.75 -2.07107,0 -3.75,-1.67893 -3.75,-3.75 0,-2.07107 1.67893,-3.75 3.75,-3.75 2.07107,0 3.75,1.67893 3.75,3.75 z" transform="translate(-67,190.75)"/><path id="path5181" d="m 314.5,135.11218 c 0,2.07107 -1.67893,3.75 -3.75,3.75 -2.07107,0 -3.75,-1.67893 -3.75,-3.75 0,-2.07107 1.67893,-3.75 3.75,-3.75 2.07107,0 3.75,1.67893 3.75,3.75 z" transform="translate(-24,151.132)" style="fill:#a0a4a1;fill-opacity:1;stroke:none"/><path style="fill:#a0a4a1;fill-opacity:1;stroke:none" id="path5183" d="m 314.5,135.11218 c 0,2.07107 -1.67893,3.75 -3.75,3.75 -2.07107,0 -3.75,-1.67893 -3.75,-3.75 0,-2.07107 1.67893,-3.75 3.75,-3.75 2.07107,0 3.75,1.67893 3.75,3.75 z" transform="translate(-64.5,151.132)"/></g><text style="font-size:14px;font-style:normal;font-variant:normal;font-weight:700;font-stretch:normal;line-height:125%;letter-spacing:0;word-spacing:0;fill:#000;fill-opacity:1;stroke:none;font-family:Courier 10 Pitch;-inkscape-font-specification:Sans Bold" id="text5192" x="214.387" y="37.812" xml:space="preserve"><tspan id="tspan5194" x="214.387" y="37.812">NODES</tspan></text><text style="font-size:14px;font-style:normal;font-variant:normal;font-weight:700;font-stretch:normal;line-height:125%;letter-spacing:0;word-spacing:0;fill:#000;fill-opacity:1;stroke:none;font-family:Courier 10 Pitch;-inkscape-font-specification:Sans Bold" id="text5196" x="401.612" y="38.26" xml:space="preserve"><tspan id="tspan5198" x="401.612" y="38.26">EDGES/FACES</tspan></text><g id="g6218" transform="translate(-8.038522,0)"><text style="font-size:14px;font-style:normal;font-variant:normal;font-weight:700;font-stretch:normal;line-height:125%;letter-spacing:0;word-spacing:0;fill:#000;fill-opacity:1;stroke:none;font-family:Courier 10 Pitch;-inkscape-font-specification:Sans Bold" id="text5200" x="194.442" y="69.362" xml:space="preserve"><tspan id="tspan5202" x="194.442" y="69.362">0</tspan></text><text style="font-size:14px;font-style:normal;font-variant:normal;font-weight:700;font-stretch:normal;line-height:125%;letter-spacing:0;word-spacing:0;fill:#000;fill-opacity:1;stroke:none;font-family:Courier 10 Pitch;-inkscape-font-specification:Sans Bold" id="text5204" x="283.522" y="69.586" xml:space="preserve"><tspan id="tspan5206" x="283.522" y="69.586">1</tspan></text><text style="font-size:14px;font-style:normal;font-variant:normal;font-weight:700;font-stretch:normal;line-height:125%;letter-spacing:0;word-spacing:0;fill:#000;fill-opacity:1;stroke:none;font-family:Courier 10 Pitch;-inkscape-font-specification:Sans Bold" id="text5208" x="239.241" y="69.348" xml:space="preserve"><tspan id="tspan5210" x="239.241" y="69.348">2</tspan></text><path id="path5218" d="m 199.5,75.612183 87,0" style="fill:none;stroke:purple;stroke-width:1.5;stroke-linecap:butt;stroke-linejoin:miter;stroke-miterlimit:4;stroke-opacity:1;stroke-dasharray:none"/><path id="path5212" d="m 314.5,135.11218 c 0,2.07107 -1.67893,3.75 -3.75,3.75 -2.07107,0 -3.75,-1.67893 -3.75,-3.75 0,-2.07107 1.67893,-3.75 3.75,-3.75 2.07107,0 3.75,1.67893 3.75,3.75 z" transform="translate(-112.094,-59.5)" style="fill:red;fill-opacity:1;stroke:none"/><path style="fill:red;fill-opacity:1;stroke:none" id="path5214" d="m 314.5,135.11218 c 0,2.07107 -1.67893,3.75 -3.75,3.75 -2.07107,0 -3.75,-1.67893 -3.75,-3.75 0,-2.07107 1.67893,-3.75 3.75,-3.75 2.07107,0 3.75,1.67893 3.75,3.75 z" transform="translate(-22.888,-59.5)"/><path style="fill:#a0a4a1;fill-opacity:1;stroke:none" id="path5216" d="m 314.5,135.11218 c 0,2.07107 -1.67893,3.75 -3.75,3.75 -2.07107,0 -3.75,-1.67893 -3.75,-3.75 0,-2.07107 1.67893,-3.75 3.75,-3.75 2.07107,0 3.75,1.67893 3.75,3.75 z" transform="translate(-67.490997,-59.5)"/></g><g id="g6111" transform="translate(59.651385,-1.862)"><rect style="fill:none;stroke:purple;stroke-width:1.5;stroke-miterlimit:4;stroke-opacity:1;stroke-dasharray:none" id="rect5419" width="85.714" height="78.571" x="345.429" y="249.362"/><text id="text5453" x="383.5" y="339.362" xml:space="preserve" style="font-size:14px;font-style:normal;font-variant:normal;font-weight:700;font-stretch:normal;line-height:125%;letter-spacing:0;word-spacing:0;fill:#00f;fill-opacity:1;stroke:none;font-family:Courier 10 Pitch;-inkscape-font-specification:Sans Bold"><tspan id="tspan5455" x="383.5" y="339.362">0</tspan></text><text style="font-size:14px;font-style:normal;font-variant:normal;font-weight:700;font-stretch:normal;line-height:125%;letter-spacing:0;word-spacing:0;fill:#00f;fill-opacity:1;stroke:none;font-family:Courier 10 Pitch;-inkscape-font-specification:Sans Bold" id="text5457" x="383.5" y="245.362" xml:space="preserve"><tspan id="tspan5459" x="383.5" y="245.362">2</tspan></text><text id="text5461" x="433" y="293.362" xml:space="preserve" style="font-size:14px;font-style:normal;font-variant:normal;font-weight:700;font-stretch:normal;line-height:125%;letter-spacing:0;word-spacing:0;fill:#00f;fill-opacity:1;stroke:none;font-family:Courier 10 Pitch;-inkscape-font-specification:Sans Bold"><tspan id="tspan5463" x="433" y="293.362">1</tspan></text><text style="font-size:14px;font-style:normal;font-variant:normal;font-weight:700;font-stretch:normal;line-height:125%;letter-spacing:0;word-spacing:0;fill:#00f;fill-opacity:1;stroke:none;font-family:Courier 10 Pitch;-inkscape-font-specification:Sans Bold" id="text5465" x="335" y="292.862" xml:space="preserve"><tspan id="tspan5467" x="335" y="292.862">3</tspan></text></g><path id="path5499" d="m 404.27438,69.931183 87,0" style="fill:none;stroke:purple;stroke-width:1.5;stroke-linecap:butt;stroke-linejoin:miter;stroke-miterlimit:4;stroke-opacity:1;stroke-dasharray:none"/><g id="g6162" transform="translate(-3.292522,-8)"><g id="g6077"><g id="g5697"><path id="path5571" d="m 149,504.36218 59,-131 117,90 z" style="fill:none;stroke:purple;stroke-width:2;stroke-linecap:butt;stroke-linejoin:miter;stroke-miterlimit:4;stroke-opacity:1;stroke-dasharray:none"/><path id="path5573" d="m 208.5,374.36218 5,75.5 -64,54.5" style="fill:none;stroke:purple;stroke-width:1px;stroke-linecap:butt;stroke-linejoin:miter;stroke-opacity:1"/><path id="path5575" d="m 214,449.36218 111,13.5" style="fill:none;stroke:purple;stroke-width:1px;stroke-linecap:butt;stroke-linejoin:miter;stroke-opacity:1"/></g><path id="path5605" d="m 314.5,135.11218 c 0,2.07107 -1.67893,3.75 -3.75,3.75 -2.07107,0 -3.75,-1.67893 -3.75,-3.75 0,-2.07107 1.67893,-3.75 3.75,-3.75 2.07107,0 3.75,1.67893 3.75,3.75 z" transform="translate(14.5,328.25)" style="fill:red;fill-opacity:1;stroke:none"/><path style="fill:red;fill-opacity:1;stroke:none" id="path5639" d="m 314.5,135.11218 c 0,2.07107 -1.67893,3.75 -3.75,3.75 -2.07107,0 -3.75,-1.67893 -3.75,-3.75 0,-2.07107 1.67893,-3.75 3.75,-3.75 2.07107,0 3.75,1.67893 3.75,3.75 z" transform="translate(-102,238.75)"/><path id="path5641" d="m 314.5,135.11218 c 0,2.07107 -1.67893,3.75 -3.75,3.75 -2.07107,0 -3.75,-1.67893 -3.75,-3.75 0,-2.07107 1.67893,-3.75 3.75,-3.75 2.07107,0 3.75,1.67893 3.75,3.75 z" transform="translate(-161.5,369.75)" style="fill:red;fill-opacity:1;stroke:none"/><path style="fill:red;fill-opacity:1;stroke:none" id="path5643" d="m 314.5,135.11218 c 0,2.07107 -1.67893,3.75 -3.75,3.75 -2.07107,0 -3.75,-1.67893 -3.75,-3.75 0,-2.07107 1.67893,-3.75 3.75,-3.75 2.07107,0 3.75,1.67893 3.75,3.75 z" transform="translate(-96.5,314.75)"/><path id="path5645" d="m 314.5,135.11218 c 0,2.07107 -1.67893,3.75 -3.75,3.75 -2.07107,0 -3.75,-1.67893 -3.75,-3.75 0,-2.07107 1.67893,-3.75 3.75,-3.75 2.07107,0 3.75,1.67893 3.75,3.75 z" transform="translate(-75.5,349.25)" style="fill:#a0a4a1;fill-opacity:1;stroke:none"/><path style="fill:#a0a4a1;fill-opacity:1;stroke:none" id="path5647" d="m 314.5,135.11218 c 0,2.07107 -1.67893,3.75 -3.75,3.75 -2.07107,0 -3.75,-1.67893 -3.75,-3.75 0,-2.07107 1.67893,-3.75 3.75,-3.75 2.07107,0 3.75,1.67893 3.75,3.75 z" transform="translate(-48.5,279.75)"/><path id="path5649" d="m 314.5,135.11218 c 0,2.07107 -1.67893,3.75 -3.75,3.75 -2.07107,0 -3.75,-1.67893 -3.75,-3.75 0,-2.07107 1.67893,-3.75 3.75,-3.75 2.07107,0 3.75,1.67893 3.75,3.75 z" transform="translate(-128.5,295.25)" style="fill:#a0a4a1;fill-opacity:1;stroke:none"/><path style="fill:#a0a4a1;fill-opacity:1;stroke:none" id="path5651" d="m 314.5,135.11218 c 0,2.07107 -1.67893,3.75 -3.75,3.75 -2.07107,0 -3.75,-1.67893 -3.75,-3.75 0,-2.07107 1.67893,-3.75 3.75,-3.75 2.07107,0 3.75,1.67893 3.75,3.75 z" transform="translate(-124.5,337.75)"/><path id="path5653" d="m 314.5,135.11218 c 0,2.07107 -1.67893,3.75 -3.75,3.75 -2.07107,0 -3.75,-1.67893 -3.75,-3.75 0,-2.07107 1.67893,-3.75 3.75,-3.75 2.07107,0 3.75,1.67893 3.75,3.75 z" transform="translate(-45,319.75)" style="fill:#a0a4a1;fill-opacity:1;stroke:none"/><path style="fill:#a0a4a1;fill-opacity:1;stroke:none" id="path5655" d="m 314.5,135.11218 c 0,2.07107 -1.67893,3.75 -3.75,3.75 -2.07107,0 -3.75,-1.67893 -3.75,-3.75 0,-2.07107 1.67893,-3.75 3.75,-3.75 2.07107,0 3.75,1.67893 3.75,3.75 z" transform="translate(-99.5,280.25)"/><text style="font-size:14px;font-style:normal;font-variant:normal;font-weight:700;font-stretch:normal;line-height:125%;letter-spacing:0;word-spacing:0;fill:#000;fill-opacity:1;stroke:none;font-family:Courier 10 Pitch;-inkscape-font-specification:Sans Bold" id="text5657" x="213.5" y="463.862" xml:space="preserve"><tspan id="tspan5659" x="213.5" y="463.862">0</tspan></text><text style="font-size:14px;font-style:normal;font-variant:normal;font-weight:700;font-stretch:normal;line-height:125%;letter-spacing:0;word-spacing:0;fill:#000;fill-opacity:1;stroke:none;font-family:Courier 10 Pitch;-inkscape-font-specification:Sans Bold" id="text5661" x="138.5" y="515.362" xml:space="preserve"><tspan id="tspan5663" x="138.5" y="515.362">1</tspan></text><text style="font-size:14px;font-style:normal;font-variant:normal;font-weight:700;font-stretch:normal;line-height:125%;letter-spacing:0;word-spacing:0;fill:#000;fill-opacity:1;stroke:none;font-family:Courier 10 Pitch;-inkscape-font-specification:Sans Bold" id="text5669" x="204" y="367.862" xml:space="preserve"><tspan id="tspan5671" x="204" y="367.862">3</tspan></text><text style="font-size:14px;font-style:normal;font-variant:normal;font-weight:700;font-stretch:normal;line-height:125%;letter-spacing:0;word-spacing:0;fill:#000;fill-opacity:1;stroke:none;font-family:Courier 10 Pitch;-inkscape-font-specification:Sans Bold" id="text5673" x="189.5" y="481.862" xml:space="preserve"><tspan id="tspan5675" x="189.5" y="481.862">4</tspan></text><text style="font-size:14px;font-style:normal;font-variant:normal;font-weight:700;font-stretch:normal;line-height:125%;letter-spacing:0;word-spacing:0;fill:#000;fill-opacity:1;stroke:none;font-family:Courier 10 Pitch;-inkscape-font-specification:Sans Bold" id="text5677" x="238.5" y="496.862" xml:space="preserve"><tspan id="tspan5679" x="238.5" y="496.862">5</tspan></text><text style="font-size:14px;font-style:normal;font-variant:normal;font-weight:700;font-stretch:normal;line-height:125%;letter-spacing:0;word-spacing:0;fill:#000;fill-opacity:1;stroke:none;font-family:Courier 10 Pitch;-inkscape-font-specification:Sans Bold" id="text5681" x="254.5" y="466.862" xml:space="preserve"><tspan id="tspan5683" x="254.5" y="466.862">6</tspan></text><text style="font-size:14px;font-style:normal;font-variant:normal;font-weight:700;font-stretch:normal;line-height:125%;letter-spacing:0;word-spacing:0;fill:#000;fill-opacity:1;stroke:none;font-family:Courier 10 Pitch;-inkscape-font-specification:Sans Bold" id="text5685" x="213.5" y="414.362" xml:space="preserve"><tspan id="tspan5687" x="213.5" y="414.362">7</tspan></text><text style="font-size:14px;font-style:normal;font-variant:normal;font-weight:700;font-stretch:normal;line-height:125%;letter-spacing:0;word-spacing:0;fill:#000;fill-opacity:1;stroke:none;font-family:Courier 10 Pitch;-inkscape-font-specification:Sans Bold" id="text5689" x="170.5" y="429.362" xml:space="preserve"><tspan id="tspan5691" x="170.5" y="429.362">8</tspan></text><text style="font-size:14px;font-style:normal;font-variant:normal;font-weight:700;font-stretch:normal;line-height:125%;letter-spacing:0;word-spacing:0;fill:#000;fill-opacity:1;stroke:none;font-family:Courier 10 Pitch;-inkscape-font-specification:Sans Bold" id="text5693" x="262" y="409.862" xml:space="preserve"><tspan id="tspan5695" x="262" y="409.862">9</tspan></text></g><text id="text5665" x="330" y="468.862" xml:space="preserve" style="font-size:14px;font-style:normal;font-variant:normal;font-weight:700;font-stretch:normal;line-height:125%;letter-spacing:0;word-spacing:0;fill:#000;fill-opacity:1;stroke:none;font-family:Courier 10 Pitch;-inkscape-font-specification:Sans Bold"><tspan id="tspan5667" x="330" y="468.862">2</tspan></text></g><g id="g6199" transform="translate(20.774385,-9.6739974)"><g id="g5702" transform="translate(190,0)"><path id="path5704" d="m 149,504.36218 59,-131 117,90 z" style="fill:none;stroke:purple;stroke-width:2;stroke-linecap:butt;stroke-linejoin:miter;stroke-miterlimit:4;stroke-opacity:1;stroke-dasharray:none"/><path id="path5706" d="m 208.5,374.36218 5,75.5 -64,54.5" style="fill:none;stroke:purple;stroke-width:1px;stroke-linecap:butt;stroke-linejoin:miter;stroke-opacity:1"/><path id="path5708" d="M 213.46967,449.89251 325,462.86218" style="fill:none;stroke:purple;stroke-width:1px;stroke-linecap:butt;stroke-linejoin:miter;stroke-opacity:1"/></g><path id="path5714" d="m 390.91421,421.66028 0.5,20.5 -13,9.5 0.0303,-21.40901 z" style="fill:#000;fill-opacity:.14159295;stroke:#000;stroke-width:1px;stroke-linecap:butt;stroke-linejoin:miter;stroke-opacity:1"/><path id="path5716" d="m 409.78769,464.75126 17.88389,2.46967 -11.62133,12.5 -18.53553,-2.79289 z" style="fill:#000;fill-opacity:.14159295;stroke:#000;stroke-width:1px;stroke-linecap:butt;stroke-linejoin:miter;stroke-opacity:1"/><rect id="rect5720" width="18.031" height="18.915" x="400.753" y="435.765" style="fill:#000;fill-opacity:.14159295;stroke:#000;stroke-width:1;stroke-miterlimit:4;stroke-opacity:1;stroke-dasharray:none"/><g id="g5896"><path style="fill:#000;fill-opacity:.14159295;stroke:#000;stroke-width:1px;stroke-linecap:butt;stroke-linejoin:miter;stroke-opacity:1" id="path5710" d="m 426.53033,434.9783 -0.43934,-18.17678 16,3.5 0.11612,18.41421 z"/><text style="font-size:14px;font-style:normal;font-variant:normal;font-weight:700;font-stretch:normal;line-height:125%;letter-spacing:0;word-spacing:0;fill:#00f;fill-opacity:1;stroke:none;font-family:Courier 10 Pitch;-inkscape-font-specification:Sans Bold" id="text5722" x="429.921" y="432.406" xml:space="preserve"><tspan id="tspan5724" x="429.921" y="432.406">0</tspan></text></g><text id="text5726" x="380.954" y="439.477" xml:space="preserve" style="font-size:14px;font-style:normal;font-variant:normal;font-weight:700;font-stretch:normal;line-height:125%;letter-spacing:0;word-spacing:0;fill:#00f;fill-opacity:1;stroke:none;font-family:Courier 10 Pitch;-inkscape-font-specification:Sans Bold"><tspan id="tspan5728" x="380.954" y="439.477">1</tspan></text><text id="text5730" x="407.415" y="476.6" xml:space="preserve" style="font-size:14px;font-style:normal;font-variant:normal;font-weight:700;font-stretch:normal;line-height:125%;letter-spacing:0;word-spacing:0;fill:#00f;fill-opacity:1;stroke:none;font-family:Courier 10 Pitch;-inkscape-font-specification:Sans Bold"><tspan id="tspan5732" x="407.415" y="476.6">2</tspan></text><text id="text5734" x="406.056" y="448.847" xml:space="preserve" style="font-size:14px;font-style:normal;font-variant:normal;font-weight:700;font-stretch:normal;line-height:125%;letter-spacing:0;word-spacing:0;fill:#00f;fill-opacity:1;stroke:none;font-family:Courier 10 Pitch;-inkscape-font-specification:Sans Bold"><tspan id="tspan5736" x="406.056" y="448.847">3</tspan></text></g><g id="g6009" transform="translate(0,-30)"><g id="g5795" transform="translate(0,0.35355339)"><path id="path5744" d="m 208.5,560.61218 5,77.25 -64,54.5" style="fill:none;stroke:purple;stroke-width:1px;stroke-linecap:butt;stroke-linejoin:miter;stroke-opacity:1"/><path id="path5746" d="m 213.5,637.86218 110.25,12.75" style="fill:none;stroke:purple;stroke-width:1px;stroke-linecap:butt;stroke-linejoin:miter;stroke-opacity:1"/><path style="fill:none;stroke:purple;stroke-width:2;stroke-linecap:butt;stroke-linejoin:miter;stroke-miterlimit:4;stroke-opacity:1;stroke-dasharray:none" id="path5751" d="m 149.5,692.36218 127.39949,19.04289 47.60051,-61.04289 0,-78.5 -116.5,-11 -66,38.5 z"/><path style="fill:none;stroke:purple;stroke-width:2;stroke-linecap:butt;stroke-linejoin:miter;stroke-miterlimit:4;stroke-opacity:1;stroke-dasharray:none" id="path5753" d="m 142.25,599.86218 c 2.5,2.5 131.93503,13.76777 131.93503,13.76777 L 324.25,572.61218"/><path style="fill:none;stroke:purple;stroke-width:2;stroke-linecap:butt;stroke-linejoin:miter;stroke-miterlimit:4;stroke-opacity:1;stroke-dasharray:none" id="path5755" d="m 274.43502,613.12994 2.81803,98.23224"/></g><path id="path5757" d="m 314.5,135.11218 c 0,2.07107 -1.67893,3.75 -3.75,3.75 -2.07107,0 -3.75,-1.67893 -3.75,-3.75 0,-2.07107 1.67893,-3.75 3.75,-3.75 2.07107,0 3.75,1.67893 3.75,3.75 z" transform="translate(-97.222872,503.61248)" style="fill:red;fill-opacity:1;stroke:none"/><path style="fill:red;fill-opacity:1;stroke:none" id="path5759" d="m 314.5,135.11218 c 0,2.07107 -1.67893,3.75 -3.75,3.75 -2.07107,0 -3.75,-1.67893 -3.75,-3.75 0,-2.07107 1.67893,-3.75 3.75,-3.75 2.07107,0 3.75,1.67893 3.75,3.75 z" transform="translate(-161.56959,557.3526)"/><path id="path5761" d="m 314.5,135.11218 c 0,2.07107 -1.67893,3.75 -3.75,3.75 -2.07107,0 -3.75,-1.67893 -3.75,-3.75 0,-2.07107 1.67893,-3.75 3.75,-3.75 2.07107,0 3.75,1.67893 3.75,3.75 z" transform="translate(-33.583262,575.38383)" style="fill:red;fill-opacity:1;stroke:none"/><path style="fill:red;fill-opacity:1;stroke:none" id="path5763" d="m 314.5,135.11218 c 0,2.07107 -1.67893,3.75 -3.75,3.75 -2.07107,0 -3.75,-1.67893 -3.75,-3.75 0,-2.07107 1.67893,-3.75 3.75,-3.75 2.07107,0 3.75,1.67893 3.75,3.75 z" transform="translate(13.792892,516.34041)"/><path id="path5765" d="m 314.5,135.11218 c 0,2.07107 -1.67893,3.75 -3.75,3.75 -2.07107,0 -3.75,-1.67893 -3.75,-3.75 0,-2.07107 1.67893,-3.75 3.75,-3.75 2.07107,0 3.75,1.67893 3.75,3.75 z" transform="translate(13.792892,436.43734)" style="fill:red;fill-opacity:1;stroke:none"/><path style="fill:red;fill-opacity:1;stroke:none" id="path5767" d="m 314.5,135.11218 c 0,2.07107 -1.67893,3.75 -3.75,3.75 -2.07107,0 -3.75,-1.67893 -3.75,-3.75 0,-2.07107 1.67893,-3.75 3.75,-3.75 2.07107,0 3.75,1.67893 3.75,3.75 z" transform="translate(-101.81907,425.47718)"/><path id="path5769" d="m 314.5,135.11218 c 0,2.07107 -1.67893,3.75 -3.75,3.75 -2.07107,0 -3.75,-1.67893 -3.75,-3.75 0,-2.07107 1.67893,-3.75 3.75,-3.75 2.07107,0 3.75,1.67893 3.75,3.75 z" transform="translate(-168.28711,464.72161)" style="fill:red;fill-opacity:1;stroke:none"/><path style="fill:red;fill-opacity:1;stroke:none" id="path5771" d="m 314.5,135.11218 c 0,2.07107 -1.67893,3.75 -3.75,3.75 -2.07107,0 -3.75,-1.67893 -3.75,-3.75 0,-2.07107 1.67893,-3.75 3.75,-3.75 2.07107,0 3.75,1.67893 3.75,3.75 z" transform="translate(-36.058142,478.86374)"/><path id="path5773" d="m 314.5,135.11218 c 0,2.07107 -1.67893,3.75 -3.75,3.75 -2.07107,0 -3.75,-1.67893 -3.75,-3.75 0,-2.07107 1.67893,-3.75 3.75,-3.75 2.07107,0 3.75,1.67893 3.75,3.75 z" transform="translate(-125.35103,526.38025)" style="fill:#a0a4a1;fill-opacity:1;stroke:none"/><path style="fill:#a0a4a1;fill-opacity:1;stroke:none" id="path5775" d="m 314.5,135.11218 c 0,2.07107 -1.67893,3.75 -3.75,3.75 -2.07107,0 -3.75,-1.67893 -3.75,-3.75 0,-2.07107 1.67893,-3.75 3.75,-3.75 2.07107,0 3.75,1.67893 3.75,3.75 z" transform="translate(-100.95585,567.03889)"/><path id="path5777" d="m 314.5,135.11218 c 0,2.07107 -1.67893,3.75 -3.75,3.75 -2.07107,0 -3.75,-1.67893 -3.75,-3.75 0,-2.07107 1.67893,-3.75 3.75,-3.75 2.07107,0 3.75,1.67893 3.75,3.75 z" transform="translate(-7.264201,541.22949)" style="fill:#a0a4a1;fill-opacity:1;stroke:none"/><path style="fill:#a0a4a1;fill-opacity:1;stroke:none" id="path5779" d="m 314.5,135.11218 c 0,2.07107 -1.67893,3.75 -3.75,3.75 -2.07107,0 -3.75,-1.67893 -3.75,-3.75 0,-2.07107 1.67893,-3.75 3.75,-3.75 2.07107,0 3.75,1.67893 3.75,3.75 z" transform="translate(-50.397715,507.99547)"/><path id="path5781" d="m 314.5,135.11218 c 0,2.07107 -1.67893,3.75 -3.75,3.75 -2.07107,0 -3.75,-1.67893 -3.75,-3.75 0,-2.07107 1.67893,-3.75 3.75,-3.75 2.07107,0 3.75,1.67893 3.75,3.75 z" transform="translate(13.595449,475.11501)" style="fill:#a0a4a1;fill-opacity:1;stroke:none"/><path style="fill:#a0a4a1;fill-opacity:1;stroke:none" id="path5783" d="m 314.5,135.11218 c 0,2.07107 -1.67893,3.75 -3.75,3.75 -2.07107,0 -3.75,-1.67893 -3.75,-3.75 0,-2.07107 1.67893,-3.75 3.75,-3.75 2.07107,0 3.75,1.67893 3.75,3.75 z" transform="translate(-51.811928,430.56728)"/><path id="path5785" d="m 314.5,135.11218 c 0,2.07107 -1.67893,3.75 -3.75,3.75 -2.07107,0 -3.75,-1.67893 -3.75,-3.75 0,-2.07107 1.67893,-3.75 3.75,-3.75 2.07107,0 3.75,1.67893 3.75,3.75 z" transform="translate(-132.4221,443.2952)" style="fill:#a0a4a1;fill-opacity:1;stroke:none"/><path style="fill:#a0a4a1;fill-opacity:1;stroke:none" id="path5787" d="m 314.5,135.11218 c 0,2.07107 -1.67893,3.75 -3.75,3.75 -2.07107,0 -3.75,-1.67893 -3.75,-3.75 0,-2.07107 1.67893,-3.75 3.75,-3.75 2.07107,0 3.75,1.67893 3.75,3.75 z" transform="translate(-92.02691,474.64013)"/><path id="path5789" d="m 314.5,135.11218 c 0,2.07107 -1.67893,3.75 -3.75,3.75 -2.07107,0 -3.75,-1.67893 -3.75,-3.75 0,-2.07107 1.67893,-3.75 3.75,-3.75 2.07107,0 3.75,1.67893 3.75,3.75 z" transform="translate(-164.94901,510.47034)" style="fill:#a0a4a1;fill-opacity:1;stroke:none"/><path style="fill:#a0a4a1;fill-opacity:1;stroke:none" id="path5791" d="m 314.5,135.11218 c 0,2.07107 -1.67893,3.75 -3.75,3.75 -2.07107,0 -3.75,-1.67893 -3.75,-3.75 0,-2.07107 1.67893,-3.75 3.75,-3.75 2.07107,0 3.75,1.67893 3.75,3.75 z" transform="translate(-34.841362,524.61247)"/><path id="path5793" d="m 314.5,135.11218 c 0,2.07107 -1.67893,3.75 -3.75,3.75 -2.07107,0 -3.75,-1.67893 -3.75,-3.75 0,-2.07107 1.67893,-3.75 3.75,-3.75 2.07107,0 3.75,1.67893 3.75,3.75 z" transform="translate(-101.18808,458.73023)" style="fill:#a0a4a1;fill-opacity:1;stroke:none"/><text id="text5814" x="210.253" y="653.897" xml:space="preserve" style="font-size:14px;font-style:normal;font-variant:normal;font-weight:700;font-stretch:normal;line-height:125%;letter-spacing:0;word-spacing:0;fill:#000;fill-opacity:1;stroke:none;font-family:Courier 10 Pitch;-inkscape-font-specification:Sans Bold"><tspan id="tspan5816" x="210.253" y="653.897">0</tspan></text><text id="text5818" x="142.25" y="706.466" xml:space="preserve" style="font-size:14px;font-style:normal;font-variant:normal;font-weight:700;font-stretch:normal;line-height:125%;letter-spacing:0;word-spacing:0;fill:#000;fill-opacity:1;stroke:none;font-family:Courier 10 Pitch;-inkscape-font-specification:Sans Bold"><tspan id="tspan5820" x="142.25" y="706.466">1</tspan></text><text id="text5822" x="274.954" y="723.911" xml:space="preserve" style="font-size:14px;font-style:normal;font-variant:normal;font-weight:700;font-stretch:normal;line-height:125%;letter-spacing:0;word-spacing:0;fill:#000;fill-opacity:1;stroke:none;font-family:Courier 10 Pitch;-inkscape-font-specification:Sans Bold"><tspan id="tspan5824" x="274.954" y="723.911">2</tspan></text><text id="text5826" x="328.805" y="654.968" xml:space="preserve" style="font-size:14px;font-style:normal;font-variant:normal;font-weight:700;font-stretch:normal;line-height:125%;letter-spacing:0;word-spacing:0;fill:#000;fill-opacity:1;stroke:none;font-family:Courier 10 Pitch;-inkscape-font-specification:Sans Bold"><tspan id="tspan5828" x="328.805" y="654.968">3</tspan></text><text id="text5830" x="203.99" y="554.316" xml:space="preserve" style="font-size:14px;font-style:normal;font-variant:normal;font-weight:700;font-stretch:normal;line-height:125%;letter-spacing:0;word-spacing:0;fill:#000;fill-opacity:1;stroke:none;font-family:Courier 10 Pitch;-inkscape-font-specification:Sans Bold"><tspan id="tspan5832" x="203.99" y="554.316">4</tspan></text><text id="text5834" x="131.764" y="595.682" xml:space="preserve" style="font-size:14px;font-style:normal;font-variant:normal;font-weight:700;font-stretch:normal;line-height:125%;letter-spacing:0;word-spacing:0;fill:#000;fill-opacity:1;stroke:none;font-family:Courier 10 Pitch;-inkscape-font-specification:Sans Bold"><tspan id="tspan5836" x="131.764" y="595.682">5</tspan></text><text id="text5838" x="270.468" y="608.653" xml:space="preserve" style="font-size:14px;font-style:normal;font-variant:normal;font-weight:700;font-stretch:normal;line-height:125%;letter-spacing:0;word-spacing:0;fill:#000;fill-opacity:1;stroke:none;font-family:Courier 10 Pitch;-inkscape-font-specification:Sans Bold"><tspan id="tspan5840" x="270.468" y="608.653">6</tspan></text><text id="text5842" x="325.623" y="565.873" xml:space="preserve" style="font-size:14px;font-style:normal;font-variant:normal;font-weight:700;font-stretch:normal;line-height:125%;letter-spacing:0;word-spacing:0;fill:#000;fill-opacity:1;stroke:none;font-family:Courier 10 Pitch;-inkscape-font-specification:Sans Bold"><tspan id="tspan5844" x="325.623" y="565.873">7</tspan></text><text id="text5846" x="179.484" y="655.908" xml:space="preserve" style="font-size:14px;font-style:normal;font-variant:normal;font-weight:700;font-stretch:normal;line-height:125%;letter-spacing:0;word-spacing:0;fill:#000;fill-opacity:1;stroke:none;font-family:Courier 10 Pitch;-inkscape-font-specification:Sans Bold"><tspan id="tspan5848" x="179.484" y="655.908">8</tspan></text><text id="text5850" x="202.707" y="715.183" xml:space="preserve" style="font-size:14px;font-style:normal;font-variant:normal;font-weight:700;font-stretch:normal;line-height:125%;letter-spacing:0;word-spacing:0;fill:#000;fill-opacity:1;stroke:none;font-family:Courier 10 Pitch;-inkscape-font-specification:Sans Bold"><tspan id="tspan5852" x="202.707" y="715.183">9</tspan></text><text id="text5854" x="307.006" y="683.96" xml:space="preserve" style="font-size:14px;font-style:normal;font-variant:normal;font-weight:700;font-stretch:normal;line-height:125%;letter-spacing:0;word-spacing:0;fill:#000;fill-opacity:1;stroke:none;font-family:Courier 10 Pitch;-inkscape-font-specification:Sans Bold"><tspan id="tspan5856" x="307.006" y="683.96">10</tspan></text><text id="text5858" x="249.498" y="637.523" xml:space="preserve" style="font-size:14px;font-style:normal;font-variant:normal;font-weight:700;font-stretch:normal;line-height:125%;letter-spacing:0;word-spacing:0;fill:#000;fill-opacity:1;stroke:none;font-family:Courier 10 Pitch;-inkscape-font-specification:Sans Bold"><tspan id="tspan5860" x="249.498" y="637.523">11</tspan></text><text id="text5862" x="159.231" y="573.994" xml:space="preserve" style="font-size:14px;font-style:normal;font-variant:normal;font-weight:700;font-stretch:normal;line-height:125%;letter-spacing:0;word-spacing:0;fill:#000;fill-opacity:1;stroke:none;font-family:Courier 10 Pitch;-inkscape-font-specification:Sans Bold"><tspan id="tspan5864" x="159.231" y="573.994">12</tspan></text><text id="text5866" x="215.668" y="622.795" xml:space="preserve" style="font-size:14px;font-style:normal;font-variant:normal;font-weight:700;font-stretch:normal;line-height:125%;letter-spacing:0;word-spacing:0;fill:#000;fill-opacity:1;stroke:none;font-family:Courier 10 Pitch;-inkscape-font-specification:Sans Bold"><tspan id="tspan5868" x="215.668" y="622.795">13</tspan></text><text id="text5870" x="287.903" y="588.147" xml:space="preserve" style="font-size:14px;font-style:normal;font-variant:normal;font-weight:700;font-stretch:normal;line-height:125%;letter-spacing:0;word-spacing:0;fill:#000;fill-opacity:1;stroke:none;font-family:Courier 10 Pitch;-inkscape-font-specification:Sans Bold"><tspan id="tspan5872" x="287.903" y="588.147">14</tspan></text><text id="text5874" x="251.266" y="560.095" xml:space="preserve" style="font-size:14px;font-style:normal;font-variant:normal;font-weight:700;font-stretch:normal;line-height:125%;letter-spacing:0;word-spacing:0;fill:#000;fill-opacity:1;stroke:none;font-family:Courier 10 Pitch;-inkscape-font-specification:Sans Bold"><tspan id="tspan5876" x="251.266" y="560.095">15</tspan></text><text id="text5878" x="212.85" y="593.329" xml:space="preserve" style="font-size:14px;font-style:normal;font-variant:normal;font-weight:700;font-stretch:normal;line-height:125%;letter-spacing:0;word-spacing:0;fill:#000;fill-opacity:1;stroke:none;font-family:Courier 10 Pitch;-inkscape-font-specification:Sans Bold"><tspan id="tspan5880" x="212.85" y="593.329">16</tspan></text><text id="text5882" x="125.553" y="650.947" xml:space="preserve" style="font-size:14px;font-style:normal;font-variant:normal;font-weight:700;font-stretch:normal;line-height:125%;letter-spacing:0;word-spacing:0;fill:#000;fill-opacity:1;stroke:none;font-family:Courier 10 Pitch;-inkscape-font-specification:Sans Bold"><tspan id="tspan5884" x="125.553" y="650.947">17</tspan></text><text id="text5886" x="279.661" y="663.807" xml:space="preserve" style="font-size:14px;font-style:normal;font-variant:normal;font-weight:700;font-stretch:normal;line-height:125%;letter-spacing:0;word-spacing:0;fill:#000;fill-opacity:1;stroke:none;font-family:Courier 10 Pitch;-inkscape-font-specification:Sans Bold"><tspan id="tspan5888" x="279.661" y="663.807">18</tspan></text><text id="text5890" x="327.744" y="612.895" xml:space="preserve" style="font-size:14px;font-style:normal;font-variant:normal;font-weight:700;font-stretch:normal;line-height:125%;letter-spacing:0;word-spacing:0;fill:#000;fill-opacity:1;stroke:none;font-family:Courier 10 Pitch;-inkscape-font-specification:Sans Bold"><tspan id="tspan5892" x="327.744" y="612.895">19</tspan></text><path style="fill:#a0a4a1;fill-opacity:1;stroke:none" id="path5894" d="m 314.5,135.11218 c 0,2.07107 -1.67893,3.75 -3.75,3.75 -2.07107,0 -3.75,-1.67893 -3.75,-3.75 0,-2.07107 1.67893,-3.75 3.75,-3.75 2.07107,0 3.75,1.67893 3.75,3.75 z" transform="translate(-10.799735,457.79089)"/></g><g id="g5950" transform="translate(-17.524385,-30.376256)"><g id="g5802" transform="translate(232.04877,-1.0606602)"><path style="fill:none;stroke:purple;stroke-width:1px;stroke-linecap:butt;stroke-linejoin:miter;stroke-opacity:1" id="path5804" d="m 208.5,560.61218 5,77.25 -64,54.5"/><path style="fill:none;stroke:purple;stroke-width:1px;stroke-linecap:butt;stroke-linejoin:miter;stroke-opacity:1" id="path5806" d="m 213.5,637.86218 110.25,12.75"/><path id="path5808" d="m 149.5,692.36218 127.39949,19.04289 47.60051,-61.04289 0,-78.5 -116.5,-11 -66,38.5 z" style="fill:none;stroke:purple;stroke-width:2;stroke-linecap:butt;stroke-linejoin:miter;stroke-miterlimit:4;stroke-opacity:1;stroke-dasharray:none"/><path id="path5810" d="m 142.25,599.86218 c 2.5,2.5 131.93503,13.76777 131.93503,13.76777 L 324.25,572.61218" style="fill:none;stroke:purple;stroke-width:2;stroke-linecap:butt;stroke-linejoin:miter;stroke-miterlimit:4;stroke-opacity:1;stroke-dasharray:none"/><path id="path5812" d="m 274.43502,613.12994 2.81803,98.23224" style="fill:none;stroke:purple;stroke-width:2;stroke-linecap:butt;stroke-linejoin:miter;stroke-miterlimit:4;stroke-opacity:1;stroke-dasharray:none"/></g><path style="fill:#000;fill-opacity:.14159295;stroke:#000;stroke-width:1px;stroke-linecap:butt;stroke-linejoin:miter;stroke-opacity:1" id="path5903" d="m 484.78821,605.57607 -0.64645,-17.32323 21.65686,2.08579 0.11612,17.7071 z"/><text style="font-size:14px;font-style:normal;font-variant:normal;font-weight:700;font-stretch:normal;line-height:125%;letter-spacing:0;word-spacing:0;fill:#00f;fill-opacity:1;stroke:none;font-family:Courier 10 Pitch;-inkscape-font-specification:Sans Bold" id="text5905" x="490.739" y="602.736" xml:space="preserve"><tspan id="tspan5907" x="490.739" y="602.736">0</tspan></text><path style="fill:#000;fill-opacity:.14159295;stroke:#000;stroke-width:1px;stroke-linecap:butt;stroke-linejoin:miter;stroke-opacity:1" id="path5912" d="m 420.16421,607.91028 0.75,19.25 -14,9.5 -0.4697,-19.65901 z"/><text style="font-size:14px;font-style:normal;font-variant:normal;font-weight:700;font-stretch:normal;line-height:125%;letter-spacing:0;word-spacing:0;fill:#00f;fill-opacity:1;stroke:none;font-family:Courier 10 Pitch;-inkscape-font-specification:Sans Bold" id="text5914" x="438.954" y="657.727" xml:space="preserve"><tspan id="tspan5916" x="438.954" y="657.727">1</tspan></text><text style="font-size:14px;font-style:normal;font-variant:normal;font-weight:700;font-stretch:normal;line-height:125%;letter-spacing:0;word-spacing:0;fill:#00f;fill-opacity:1;stroke:none;font-family:Courier 10 Pitch;-inkscape-font-specification:Sans Bold" id="text5918" x="409.415" y="627.101" xml:space="preserve"><tspan id="tspan5920" x="409.415" y="627.101">2</tspan></text><path id="path5922" d="m 433.78821,661.07607 -0.64645,-17.32323 21.65686,2.08579 0.11612,17.7071 z" style="fill:#000;fill-opacity:.14159295;stroke:#000;stroke-width:1px;stroke-linecap:butt;stroke-linejoin:miter;stroke-opacity:1"/><path id="path5928" d="m 538.91421,619.66028 0.75,19.25 -14,9.5 -0.4697,-19.65901 z" style="fill:#000;fill-opacity:.14159295;stroke:#000;stroke-width:1px;stroke-linecap:butt;stroke-linejoin:miter;stroke-opacity:1"/><text style="font-size:14px;font-style:normal;font-variant:normal;font-weight:700;font-stretch:normal;line-height:125%;letter-spacing:0;word-spacing:0;fill:#00f;fill-opacity:1;stroke:none;font-family:Courier 10 Pitch;-inkscape-font-specification:Sans Bold" id="text5934" x="528.056" y="637.847" xml:space="preserve"><tspan id="tspan5936" x="528.056" y="637.847">3</tspan></text><path style="fill:#000;fill-opacity:.14159295;stroke:#000;stroke-width:1px;stroke-linecap:butt;stroke-linejoin:miter;stroke-opacity:1" id="path5938" d="m 471.78769,663.00126 17.88389,2.46967 -11.62133,12.5 -18.53553,-2.79289 z"/><text style="font-size:14px;font-style:normal;font-variant:normal;font-weight:700;font-stretch:normal;line-height:125%;letter-spacing:0;word-spacing:0;fill:#00f;fill-opacity:1;stroke:none;font-family:Courier 10 Pitch;-inkscape-font-specification:Sans Bold" id="text5940" x="470.306" y="674.597" xml:space="preserve"><tspan id="tspan5942" x="470.306" y="674.597">4</tspan></text><text id="text5944" x="461.056" y="590.097" xml:space="preserve" style="font-size:14px;font-style:normal;font-variant:normal;font-weight:700;font-stretch:normal;line-height:125%;letter-spacing:0;word-spacing:0;fill:#00f;fill-opacity:1;stroke:none;font-family:Courier 10 Pitch;-inkscape-font-specification:Sans Bold"><tspan id="tspan5946" x="461.056" y="590.097">5</tspan></text><path id="path5948" d="m 462.03769,578.50126 17.88389,2.46967 -11.62133,12.5 -18.53553,-2.79289 z" style="fill:#000;fill-opacity:.14159295;stroke:#000;stroke-width:1px;stroke-linecap:butt;stroke-linejoin:miter;stroke-opacity:1"/></g></g></svg>